<?xml version="1.0" encoding="UTF-8"?>
<svg fill="#000000" version="1.1" viewBox="0 0 30 30" xmlns="http://www.w3.org/2000/svg">
<path d="m29.87 9.8157c-0.10909-2.2709-0.97177-4.4035-2.4294-6.0049-1.4762-1.6218-3.4026-2.515-5.4239-2.515-3.0082 0-5.1884 2.6509-6.3597 4.0752-0.18082 0.21995-0.39273 0.47759-0.54023 0.63479-0.11807-0.13617-0.27808-0.33924-0.42528-0.52596-1.0697-1.358-3.2959-4.1839-6.5069-4.1839-2.0213 0-3.9476 0.89319-5.4238 2.515-1.4578 1.6013-2.3206 3.7338-2.4297 6.0048-0.10859 2.2672 0.41169 4.24 1.6871 6.3969 1.0091 1.707 3.6698 5.0402 6.4702 8.1059 1.4424 1.5791 2.77 2.9173 3.8391 3.8699 1.7361 1.5469 2.4011 1.7453 2.7863 1.7453 0.36116 0 1.0442-0.18051 2.7969-1.741 1.0667-0.94962 2.3896-2.2858 3.826-3.8639 2.7752-3.0492 5.4262-6.3869 6.4468-8.1167 0.85839-1.4551 1.8258-3.4969 1.6867-6.3966z" fill="#fb315f" stroke-width=".10319"/>
<g>
<path d="m24.319 8.1821c-0.62488 0.30718-1.2961 0.5139-2.0007 0.60714 0.71956-0.47704 1.2713-1.2323 1.5312-2.1329-0.67254 0.44162-1.4182 0.76253-2.2122 0.936-0.63533-0.74952-1.5403-1.2179-2.542-1.2179-1.9236 0-3.4829 1.7267-3.4829 3.8553 0 0.30212 0.03134 0.59702 0.09011 0.87818-2.8946-0.16046-5.4607-1.6956-7.1792-4.0288-0.29905 0.56955-0.47078 1.2316-0.47078 1.9392 0 1.3371 0.61443 2.5174 1.5488 3.2084-0.57068-0.02025-1.1081-0.19371-1.5775-0.4821v0.04844c0 1.8684 1.2001 3.4267 2.794 3.7801-0.29187 0.08818-0.60006 0.13516-0.91805 0.13516-0.22396 0-0.4427-0.02457-0.65491-0.06866 0.44336 1.5316 1.7297 2.6468 3.2537 2.6779-1.1916 1.0343-2.6934 1.6508-4.3258 1.6508-0.28077 0-0.55828-0.01807-0.83121-0.05421 1.5416 1.0936 3.3719 1.7318 5.3392 1.7318 6.4068 0 9.9092-5.8748 9.9092-10.97 0-0.16696-0.0032-0.3332-0.0098-0.49872 0.68103-0.54425 1.272-1.2229 1.7388-1.9956z" fill="#fff" fill-opacity=".98394" stroke-width=".68698"/>
</g>
</svg>
